<svg xmlns="http://www.w3.org/2000/svg" width="424.3" height="61.4" viewBox="0 0 424.3 61.4"><path d="M230.3,4.7a14.1,14.1,0,0,0-4.9-3.3,19.7,19.7,0,0,0-6.2-.9H206.3V6.8h0V54.7h0v6.2h8.6V54.7h0V37.3h4.3a18.6,18.6,0,0,0,5.6-.7h0l2.2-.9a13.2,13.2,0,0,0,4.7-4.7,14.2,14.2,0,0,0,2-5.3,43.6,43.6,0,0,0,.4-6.8,33.4,33.4,0,0,0-.8-8.6A14.5,14.5,0,0,0,230.3,4.7Zm-4.4,18.5a7.1,7.1,0,0,1-.8,3.1l-.3.5h0a4,4,0,0,1-1.8,1.6,8.6,8.6,0,0,1-4,.8h-4.1V8.7h4.4a7.1,7.1,0,0,1,3.9.8,4.6,4.6,0,0,1,1.6,1.5h0a1.6,1.6,0,0,1,.4.7,10.1,10.1,0,0,1,.7,3.3c.1,1.2.2,2.6.2,4S226,21.9,225.9,23.2Z" fill="#fff"/><polygon points="240.8 6.8 240.8 54.7 240.8 60.9 249.4 60.9 249.4 54.7 249.4 6.8 249.4 0.5 240.8 0.5 240.8 6.8" fill="#fff"/><path d="M351.4,8.7a14,14,0,0,0-2.9-4.4A15.7,15.7,0,0,0,344,1.2,14.5,14.5,0,0,0,338.1,0a14.8,14.8,0,0,0-6.5,1.3,14.3,14.3,0,0,0-4.5,3.5,14.2,14.2,0,0,0-2.8,5.3,22.5,22.5,0,0,0-.9,6.4,20.6,20.6,0,0,0,1.9,9.5c1.2,2.4,3.6,4.4,7,5.9a.5.5,0,0,1,.4.2l6.2,2.5,2.5,1.3a4.6,4.6,0,0,1,1.6,1.5,7.5,7.5,0,0,1,.7,2.5c.1,1,.1,2.3.1,3.9s0,2.6-.1,3.7a7.1,7.1,0,0,1-.8,2.8,4.1,4.1,0,0,1-1.9,1.8,6.4,6.4,0,0,1-3.4.7,5.7,5.7,0,0,1-4.7-1.9l-.6-1.1a7.1,7.1,0,0,1-.7-3.2V43.9H323v3.2a15.6,15.6,0,0,0,1.1,5.7,15.7,15.7,0,0,0,3.1,4.5,13.1,13.1,0,0,0,4.6,3,15.8,15.8,0,0,0,5.8,1.1,16.2,16.2,0,0,0,7-1.3,13,13,0,0,0,4.6-3.7l1-1.7a22.6,22.6,0,0,0,1.5-3.9,32.3,32.3,0,0,0,.7-7.1,51.5,51.5,0,0,0-.3-5.9,15.5,15.5,0,0,0-1.3-4.6,11.7,11.7,0,0,0-2.8-3.5,16.4,16.4,0,0,0-4.6-2.6l-6.5-2.6a13.7,13.7,0,0,1-2.7-1.3,7.5,7.5,0,0,1-1.5-1.6l-.4-1a4.3,4.3,0,0,1-.2-1.1,28.1,28.1,0,0,1-.1-3,28.3,28.3,0,0,1,.2-3,.4.4,0,0,0,.1-.3.9.9,0,0,0,.1-.5,7.7,7.7,0,0,1,.7-1.6,5.2,5.2,0,0,1,1.8-1.8,6,6,0,0,1,2.9-.6,5.3,5.3,0,0,1,4.7,2.1,10.8,10.8,0,0,1,.8,1.9,8.6,8.6,0,0,1,.5,3.2v2h8.6V12.7A11.8,11.8,0,0,0,351.4,8.7Z" fill="#fff"/><path d="M386.4,9.8l-.6-1.5a15.5,15.5,0,0,0-1.2-2.2,12.1,12.1,0,0,0-2.1-2.4A16.7,16.7,0,0,0,377.9.9a15.5,15.5,0,0,0-10.4,0,16.7,16.7,0,0,0-4.6,2.8,12.1,12.1,0,0,0-3.3,4.6h-.1a17.1,17.1,0,0,0-1.2,5.8V47.3a17.9,17.9,0,0,0,1.1,5.5l.2.3a.8.8,0,0,0,.2.5,13.9,13.9,0,0,0,2.8,3.8l.3.3a12.4,12.4,0,0,0,2.3,1.7l2.3,1.1,3.9.9h2.2a17.4,17.4,0,0,0,4.3-.9,14.6,14.6,0,0,0,4.6-2.8,9.2,9.2,0,0,0,2.2-2.6l.3-.4a8,8,0,0,0,.8-1.6l.6-1.4a19.5,19.5,0,0,0,.7-5V14.8c0-.7-.1-1.4-.1-2.1A13.6,13.6,0,0,0,386.4,9.8Zm-18.8,1.8a4,4,0,0,1,1-1.5,6.7,6.7,0,0,1,8.2,0l.4.5a5.1,5.1,0,0,1,1,2.1,6.6,6.6,0,0,1,.3,2.1V46.7a5.8,5.8,0,0,1-1.7,4.5h0a6.4,6.4,0,0,1-8.2,0,6,6,0,0,1-1.7-4.6h0V14.8h0a12.5,12.5,0,0,1,.2-2.1A3.7,3.7,0,0,1,367.6,11.6Z" fill="#fff"/><polygon points="415.7 0.5 415.7 6.8 415.7 36.9 415.5 36.9 404.8 6.8 402.6 0.5 394.3 0.5 394.3 60.9 402.9 60.9 402.9 54.7 402.9 24.6 403.1 24.6 413.9 54.7 416.2 60.9 424.3 60.9 424.3 0.5 415.7 0.5" fill="#fff"/><polygon points="257.7 60.9 283.3 60.9 283.3 54.5 283.3 52.3 266.3 52.3 266.3 34.5 281.1 34.5 281.1 26.4 266.3 26.4 266.3 8.7 283.3 8.7 283.3 0.5 257.7 0.5 257.7 60.9" fill="#fff"/><path d="M183.2.5H170.4V60.9h12c5.1,0,9-1.3,11.7-4s4.1-6.9,4.1-12.5V16.1c0-4.9-1.3-8.7-3.9-11.5S188,.5,183.2.5Zm6.4,15.6V45.2q0,3.9-1.5,5.7c-1,1.3-2.7,1.9-5.1,1.9h-4V8.7h4c2.5,0,4.2.6,5.2,1.9S189.6,13.7,189.6,16.1Z" fill="#fff"/><polygon points="77.8 52.3 77.8 12.7 77.8 0.5 69.2 0.5 69.2 60.9 94.8 60.9 94.8 52.3 94.1 52.3 77.8 52.3" fill="#fff"/><path d="M28.7,37.3,21.9,6.8h0L20.5.5H13.4L12,6.8,5.4,36.4,0,60.9H8.6l1.2-6.2,1.3-6.8H22.8l1.3,6.8,1.2,6.2h8.6L28.7,37.3ZM12.6,39.8l4.2-21.9H17l4.2,21.9Z" fill="#fff"/><polygon points="46.7 52.3 46.7 12.7 46.7 0.5 38.1 0.5 38.1 12.7 38.1 54.7 38.1 60.9 63.7 60.9 63.7 52.3 61.4 52.3 46.7 52.3" fill="#fff"/><path d="M119.7,12.7,117,.5h-7.1l-2.7,12.2-3.7,16.6-7,31.6h8.6l1.2-6.2,1.3-6.8h11.7l1.3,6.8,1.2,6.2h8.6l-3.6-16.5ZM109.1,39.8l4.2-21.9h.2l4.2,21.9Z" fill="#fff"/><path d="M156.1,33.3a14,14,0,0,0,3.3-2.4h0a12.3,12.3,0,0,0,2.5-3.6,22.8,22.8,0,0,0,1.6-9.1c0-11.8-5-17.7-15.1-17.7H134.6V60.9h8.6V35.1h5.1l6.1,19.6h0l1.9,6.2h9.1l-6-17.7ZM153.7,25a3.9,3.9,0,0,1-2,1.8,7.4,7.4,0,0,1-3.6.7h-4.9V8.7h4.4a12.5,12.5,0,0,1,3.8.5,5.4,5.4,0,0,1,2.3,1.9,7.7,7.7,0,0,1,.7,1.6h0l.3,1.3a24.6,24.6,0,0,1,.3,4.1,24.1,24.1,0,0,1-.3,4A7.6,7.6,0,0,1,153.7,25Z" fill="#fff"/><path d="M310.4,33.3a12.7,12.7,0,0,0,5.7-6,22.7,22.7,0,0,0,1.7-9.1,36.5,36.5,0,0,0-.5-5.5h0C315.9,4.6,311,.5,302.6.5H288.8V60.9h8.6V35.1h5.1l6.1,19.6h0l1.9,6.2h9.1l-2.1-6.2ZM308,25a4.6,4.6,0,0,1-2.1,1.8,7.4,7.4,0,0,1-3.6.7h-4.9V8.7h4.5a12.2,12.2,0,0,1,3.7.5,5.4,5.4,0,0,1,2.3,1.9,7.7,7.7,0,0,1,.7,1.6h0a3.1,3.1,0,0,1,.3,1.3,24.6,24.6,0,0,1,.3,4.1,24.1,24.1,0,0,1-.3,4A7.6,7.6,0,0,1,308,25Z" fill="#fff"/></svg>