<svg width="97" height="62" viewBox="0 0 97 62" fill="none" xmlns="http://www.w3.org/2000/svg">
						<g clip-path="url(#clip0_42_1768)">
							<path d="M16.8365 53.7319H13.6582V61.6086H16.8365V53.7319Z" fill="white"></path>
							<path d="M0 46.7075V61.6087H2.99406V48.8494L6.95542 61.6087H9.60401L12.0914 53.732H9.55795L8.36033 57.5552L5.20505 46.7075H0Z" fill="white"></path>
							<mask id="mask0_42_1768" style="mask-type:luminance" maskUnits="userSpaceOnUse" x="0" y="0" width="97" height="62">
								<path d="M96.8462 0H0V62H96.8462V0Z" fill="white"></path>
							</mask>
							<g mask="url(#mask0_42_1768)">
								<path d="M26.1863 56.4491C26.1863 58.2225 26.1863 59.6965 24.2287 59.6965C22.6165 59.6965 22.6165 58.3147 22.6165 57.3934V53.7314H19.5073V57.6698C19.4382 58.6601 19.6915 59.6274 20.1982 60.4796C20.9813 61.4008 22.1328 61.9075 23.3305 61.8615C24.5741 61.9306 25.7487 61.2857 26.3936 60.2262L26.5088 61.6081H29.5719V53.7314H26.1863V56.4491Z" fill="white"></path>
								<path d="M31.6917 54.2151C31.7147 55.7121 32.8432 56.9558 34.3402 57.1401L36.2288 57.6467C37.4264 57.9922 37.6798 58.3607 37.6798 58.8213C37.6798 59.282 37.1501 60.065 36.0676 60.065C35.2615 60.2032 34.4784 59.6274 34.3633 58.8213C34.3633 58.7522 34.3633 58.7062 34.3633 58.6371H31.4844C31.4844 59.3971 31.7607 60.1341 32.2674 60.6869C33.2117 61.5851 34.5015 62.0457 35.8142 61.9536C39.0616 61.9536 40.6047 60.1571 40.6047 58.3837C40.6047 56.6103 39.7065 56.0806 37.818 55.4818L35.9524 54.9521C35.0312 54.7218 34.5245 54.5606 34.5245 53.8696H31.7607C31.7607 54.0308 31.7607 54.1921 31.7607 54.3533" fill="white"></path>
								<path d="M48.8949 55.2517H45.1178C45.1408 54.722 45.302 54.1922 45.5784 53.7316H42.6534C42.2619 54.6529 42.0777 55.6432 42.1007 56.6335C41.9855 58.1075 42.4692 59.5585 43.4365 60.687C44.4268 61.5853 45.7627 62.0689 47.0985 61.9998C48.4343 62.0919 49.724 61.6543 50.7374 60.7792C51.3592 60.1803 51.7047 59.3512 51.7277 58.476H48.964C48.8258 59.3512 48.0197 59.9731 47.1445 59.904C45.0257 59.904 45.0257 57.8081 45.0257 57.1402H51.935C52.0271 55.9656 51.889 54.791 51.4744 53.6855H48.4803C48.7337 54.1462 48.8488 54.6759 48.8258 55.2056" fill="white"></path>
								<path d="M60.6863 56.4491C60.6863 58.2225 60.6863 59.6965 58.7287 59.6965C56.771 59.6965 57.0935 58.3147 57.0935 57.3934V53.7314H54.0073V57.6698C53.9382 58.6601 54.1915 59.6274 54.6982 60.4796C55.4813 61.4008 56.6328 61.9075 57.8305 61.8615C59.0741 61.9306 60.2487 61.2857 60.8936 60.2262V61.6081H63.8646C63.8646 61.3548 63.8646 61.1014 63.8646 60.8481V53.7314H60.6863V56.4491Z" fill="white"></path>
								<path d="M66.6523 61.6081H69.7155V55.4818C69.6694 54.86 69.8076 54.2612 70.1531 53.7314H66.6523V61.6081Z" fill="white"></path>
								<path d="M80.0337 55.4818V61.6081H83.0969V55.7352C83.1199 55.0673 83.0968 54.3994 82.9817 53.7314H79.6191C79.9416 54.2612 80.0798 54.86 80.0337 55.4818Z" fill="white"></path>
								<path d="M73.3314 55.4358V61.6081H76.4176V56.4031C76.3024 55.4818 76.4867 54.5606 76.9243 53.7314H72.9629C73.2623 54.2381 73.3775 54.8369 73.3314 55.4358Z" fill="white"></path>
							</g>
							<path d="M0 17.9873V32.8424H9.30461V30.309H3.27043V17.9873H0Z" fill="white"></path>
							<mask id="mask1_42_1768" style="mask-type:luminance" maskUnits="userSpaceOnUse" x="0" y="0" width="97" height="62">
								<path d="M96.8462 0H0V62H96.8462V0Z" fill="white"></path>
							</mask>
							<g mask="url(#mask1_42_1768)">
								<path d="M13.6354 29.6411C13.6354 28.3974 15.0403 27.7755 16.998 27.9598C17.044 28.6277 16.9519 29.2956 16.7446 29.9405H19.8999V26.0482C19.946 25.15 19.6926 24.2518 19.1859 23.4917C18.1726 22.5705 16.8368 22.0868 15.4779 22.1559C14.3724 22.1099 13.2669 22.3862 12.3226 22.985C11.5396 23.5608 11.102 24.4821 11.148 25.4494H14.096C14.096 25.1269 14.1651 24.7815 14.3264 24.5051C14.833 23.8602 15.7543 23.7451 16.3992 24.2518C16.5834 24.3899 16.7446 24.5972 16.8368 24.8045C16.9749 25.2421 17.044 25.7258 16.998 26.1864C15.5931 26.1173 14.1882 26.3015 12.8754 26.7622C11.5165 27.2458 10.6183 28.5125 10.5723 29.9405H13.5663C13.5663 29.9405 13.5663 29.7332 13.5663 29.6411" fill="white"></path>
								<path d="M25.6112 26.7623C25.5881 26.2095 25.7263 25.6568 26.0027 25.1731C26.3712 24.6664 26.947 24.367 27.5688 24.367C28.1907 24.367 28.7895 24.6894 29.0658 25.2652C29.204 25.6337 29.2501 26.0022 29.2271 26.3938V29.9406H32.3363V27.1998C32.4284 26.1634 32.3363 25.104 32.0369 24.0906C31.5302 22.8239 30.2404 22.0178 28.8816 22.133C27.4997 22.0409 26.1869 22.7548 25.496 23.9524V22.3863H22.502V29.9175H25.5651L25.6112 26.7623Z" fill="white"></path>
								<path d="M37.5643 27.7986C37.5643 26.7622 37.7946 24.2979 39.8674 24.2979C41.2493 24.2979 42.1705 25.4264 42.1705 27.4531C42.1936 28.3053 42.0093 29.1574 41.6638 29.9175H45.1185V17.9873H41.9863V23.7221C41.3184 22.7778 40.2129 22.2481 39.0613 22.3172C36.3436 22.3172 34.4551 24.4591 34.4551 27.8907C34.4551 28.5817 34.5242 29.2726 34.7084 29.9405H37.9558C37.6564 29.2726 37.5182 28.5356 37.5413 27.7986" fill="white"></path>
								<path d="M52.235 24.1826C54.0084 24.1826 54.0544 26.0251 54.0544 26.4858H50.3003C50.3003 25.2651 50.9222 24.1826 52.258 24.1826M50.3003 28.4204H57.2097C57.3479 27.1306 57.1176 25.8179 56.5879 24.6202C55.8048 23.0311 54.1696 22.0407 52.3962 22.1098C51.3598 22.1098 50.3464 22.3862 49.4712 22.962C47.9742 24.1366 47.1681 25.9791 47.3063 27.8907C47.3063 28.5816 47.3984 29.2725 47.5596 29.9404H50.3003C50.1391 29.4568 50.07 28.9271 50.0931 28.4204" fill="white"></path>
								<path d="M67.7345 29.5033C67.7345 28.0984 66.8363 27.2002 64.9478 26.6014L63.0822 26.0947C62.161 25.8413 61.6543 25.7031 61.6543 25.0122C61.6543 24.3213 62.2761 23.9758 63.1053 23.9758C63.7962 23.8606 64.4411 24.3213 64.5562 25.0122C64.5562 25.0813 64.5562 25.1274 64.5562 25.1965H67.343C67.343 23.1236 65.5235 22.1333 63.3816 22.1333C60.687 22.1333 58.7754 23.377 58.7754 25.3807C58.8215 26.8777 59.95 28.0984 61.424 28.2826L63.3125 28.7893C64.4411 29.0887 64.7174 29.4342 64.7405 29.8718H67.6194C67.6194 29.7566 67.6194 29.6184 67.6194 29.5033" fill="white"></path>
								<path d="M5.68871 12.4139C7.18574 12.4139 8.22214 12.1376 8.22214 10.4332C8.22214 8.72894 7.18574 8.45257 5.68871 8.45257H3.17831V12.4139H5.68871ZM5.68871 5.98823C7.02452 5.98823 7.76152 5.43548 7.76152 4.23785C7.76152 3.04023 7.02452 2.48748 5.68871 2.48748H3.17831V5.98823H5.68871ZM0 14.8783V0.0231446H5.57355C8.24517 -0.161105 10.9629 0.967424 10.9629 3.86936C10.9168 5.41245 9.83432 6.74826 8.3373 7.11676C10.2949 7.39313 11.6999 9.12047 11.6077 11.0781C11.6077 14.0261 7.8997 15.0856 5.61961 14.9243L0 14.8783Z" fill="white"></path>
								<path d="M16.1227 11.6541C16.1227 12.4602 16.7446 13.105 17.5506 13.1281C17.5737 13.1281 17.6197 13.1281 17.6428 13.1281C19.3471 13.1281 19.3931 11.2395 19.3931 10.0188C18.3337 10.0188 16.1227 10.0188 16.1227 11.6541ZM13.6353 7.46239C13.5893 6.40295 14.119 5.41261 15.0402 4.88289C15.9615 4.39924 16.9979 4.14589 18.0573 4.16892C20.1532 4.16892 22.4793 4.92895 22.4793 8.03817V13.6808C22.4793 14.0493 22.5484 14.4408 22.6175 14.8093H19.8538C19.8307 14.3487 19.8307 13.8881 19.8538 13.4275C19.2089 14.556 17.9652 15.2009 16.6755 15.1087C15.0172 15.293 13.4972 14.0723 13.3359 12.4141C13.3359 12.2759 13.3359 12.1377 13.3359 11.9995C13.359 10.5255 14.2802 9.23579 15.6391 8.70607C16.9288 8.24545 18.3107 8.0612 19.6695 8.15332V7.18601C19.6695 6.47204 19.0707 5.89626 18.3567 5.91929C18.3337 5.91929 18.2876 5.91929 18.2646 5.91929C17.5046 5.91929 16.8827 6.54114 16.8827 7.30117C16.8827 7.3242 16.8827 7.37026 16.8827 7.39329L13.6584 7.46239H13.6353Z" fill="white"></path>
								<path d="M29.9404 13.1277C31.6217 13.1277 32.2435 11.124 32.2435 9.71908C32.2435 8.31418 31.6908 6.28744 29.9404 6.28744C28.19 6.28744 27.6373 8.12993 27.6373 9.71908C27.6373 11.3082 27.8906 13.1277 29.9404 13.1277ZM32.2435 0.0229492H35.3297V12.8283C35.3297 13.4962 35.3297 14.1871 35.4449 14.8781H32.2666V13.4271C31.6217 14.5556 30.401 15.2466 29.0883 15.1775C26.4166 14.9702 24.4129 12.644 24.6202 9.9494C24.6202 9.8803 24.6202 9.78818 24.6432 9.71908C24.3669 6.97837 26.3936 4.53707 29.1343 4.26069C29.2495 4.26069 29.3646 4.26069 29.4798 4.26069C30.5853 4.28372 31.6217 4.8595 32.2435 5.75772V0.0229492Z" fill="white"></path>
							</g>
							<path d="M37.7948 14.8782H40.881V4.53715H37.7948V14.8782ZM37.6797 2.67162H41.0883V0H37.6797V2.67162Z" fill="white"></path>
							<mask id="mask2_42_1768" style="mask-type:luminance" maskUnits="userSpaceOnUse" x="0" y="0" width="97" height="62">
								<path d="M96.8462 0H0V62H96.8462V0Z" fill="white"></path>
							</mask>
							<g mask="url(#mask2_42_1768)">
								<path d="M48.8483 7.3007C48.8483 6.60976 48.1574 6.28733 47.4434 6.28733C46.7294 6.28733 46.2227 6.54067 46.2227 7.20858C46.2227 8.84379 52.1187 7.92254 52.1187 11.8148C52.1187 14.1179 49.355 15.2004 47.5125 15.2004C45.2094 15.2004 42.9062 14.2561 42.9062 11.8839H45.693C45.8082 12.69 46.5682 13.2658 47.3743 13.1506C48.2265 13.1506 48.8713 12.8052 48.8713 11.9991C48.8713 11.193 47.3743 10.8245 46.7525 10.6863C44.7948 10.2026 42.9523 9.76504 42.9523 7.36979C42.9523 4.97455 45.693 4.16846 47.4434 4.16846C49.6314 4.16846 51.4739 4.95152 51.6351 7.23161L48.8483 7.3007Z" fill="white"></path>
								<path d="M59.5114 8.17617C59.5114 7.32401 59.1429 6.28761 57.9453 6.28761C56.7476 6.28761 56.6094 8.75195 56.5864 9.55804C56.5634 10.3641 56.5864 13.1279 57.9913 13.1279C59.3962 13.1279 59.5344 11.9533 59.5574 11.1011H62.5745C62.6436 13.3121 60.8932 15.1546 58.6822 15.2237C58.4519 15.2237 58.1986 15.2237 57.9683 15.1777C54.9512 14.6479 52.9245 11.7921 53.4311 8.77498C53.8227 6.44882 55.6421 4.65239 57.9683 4.23783C60.1793 3.93842 62.2291 5.48151 62.5285 7.69251C62.5285 7.85373 62.5515 8.01495 62.5745 8.17617H59.5114Z" fill="white"></path>
								<path d="M64.625 14.8781V0.0229492H67.6881V5.75772C68.4251 4.65222 69.7149 4.03038 71.0277 4.16857C72.5247 4.16857 73.8605 5.08981 74.4133 6.47169C74.5515 7.02444 74.6205 7.57718 74.6205 8.12993V14.855H71.4192V8.77481C71.4192 7.66931 71.0968 6.47169 69.5767 6.47169C68.6094 6.47169 67.7572 7.34687 67.7112 8.77481V14.9932L64.625 14.8781Z" fill="white"></path>
								<path d="M83.0489 8.47525C83.0489 7.34672 82.7265 6.17213 81.2295 6.17213C79.7324 6.17213 79.5021 7.23156 79.4561 8.47525H83.0489ZM79.4561 10.525C79.4561 11.8608 79.6403 13.1276 81.2295 13.1276C82.1046 13.2657 82.9338 12.6669 83.118 11.7917H85.9048C85.6284 14.3482 83.6017 15.1773 81.2985 15.1773C77.7517 15.1773 76.3238 13.1966 76.3238 9.71893C76.0014 7.00125 77.959 4.51388 80.6997 4.19144C80.884 4.19144 81.0682 4.16841 81.2295 4.16841C83.072 3.98416 84.8223 4.9745 85.6284 6.63275C85.9048 7.20853 86.089 7.8534 86.1581 8.49828C86.2042 9.14315 86.2042 9.81106 86.1581 10.4559L79.4561 10.525Z" fill="white"></path>
								<path d="M93.5749 7.3007C93.5749 6.60976 92.8839 6.28733 92.193 6.28733C91.5021 6.28733 90.9493 6.54067 90.9493 7.20858C90.9493 8.84379 96.8453 7.92254 96.8453 11.8148C96.8453 14.1179 94.1046 15.2004 92.2391 15.2004C89.9359 15.2004 87.6328 14.2561 87.6328 11.8839H90.4887C90.4887 12.69 91.2717 13.1506 92.193 13.1506C93.1142 13.1506 93.667 12.8052 93.667 11.9991C93.667 11.193 92.193 10.8245 91.5711 10.6863C89.5905 10.2026 87.748 9.76504 87.748 7.36979C87.748 4.97455 90.3735 4.16846 92.193 4.16846C94.3579 4.16846 96.2235 4.95152 96.3616 7.23161L93.5749 7.3007Z" fill="white"></path>
							</g>
						</g>
						<defs>
							<clipPath id="clip0_42_1768">
								<rect width="96.8462" height="62" fill="white"></rect>
							</clipPath>
						</defs>
					</svg>