<?xml version="1.0" encoding="utf-8"?>
<!-- Generator: Adobe Illustrator 25.1.0, SVG Export Plug-In . SVG Version: 6.00 Build 0)  -->
<svg version="1.1" id="Layer_1" xmlns="http://www.w3.org/2000/svg" xmlns:xlink="http://www.w3.org/1999/xlink" x="0px" y="0px"
	 viewBox="0 0 248 62" style="enable-background:new 0 0 248 62;" xml:space="preserve">
<style type="text/css">
	.st0{fill:#FFFFFF;}
</style>
<path class="st0" d="M210.9,0.1h12.7c5.3,0,9,0.8,11.2,2.3c2.2,1.6,3.4,3.8,3.4,6.7c0,1.6-0.3,2.9-0.9,4.1c-0.6,1.1-1.3,2-2.2,2.6
	c-0.9,0.6-1.7,1.1-2.7,1.3v0.2c1,0.2,2,0.7,3,1.2c1,0.6,1.8,1.4,2.5,2.6c0.7,1.1,1,2.7,1,4.6c0,2.2-0.6,4.1-1.7,5.7
	c-1.1,1.6-2.7,2.8-4.8,3.7c-2.1,0.8-4.5,1.3-7.4,1.3h-14.1V0.1z M220.7,14.1h3c1.6,0,2.8-0.3,3.4-1c0.7-0.7,1-1.5,1-2.5
	c0-1-0.4-1.7-1.1-2.3c-0.7-0.5-1.9-0.8-3.5-0.8h-2.8V14.1z M220.7,21.3v7.6h3.5c1.7,0,2.9-0.4,3.6-1.1c0.7-0.7,1-1.7,1-2.8
	c0-0.6-0.1-1.3-0.4-1.8c-0.3-0.6-0.8-1-1.5-1.4c-0.7-0.4-1.7-0.5-2.9-0.5H220.7z"/>
<path class="st0" d="M196.2,36.5l-1.8-6.8h-11.8l-1.8,6.8H170L181.8,0h13.1l12,36.5H196.2z M192.4,21.6l-1.6-6
	c-0.2-0.6-0.4-1.6-0.7-2.8c-0.3-1.2-0.6-2.5-0.9-3.7c-0.3-1.3-0.5-2.4-0.7-3.2c-0.1,0.8-0.4,1.9-0.6,3.1c-0.3,1.2-0.5,2.4-0.8,3.6
	c-0.3,1.2-0.5,2.2-0.7,3l-1.6,6H192.4z"/>
<path class="st0" d="M144.3,36.5V0.1h9.8v28.4h14v7.9H144.3z"/>
<path class="st0" d="M129.6,36.5l-1.8-6.8H116l-1.8,6.8h-10.8L115.2,0h13.1l12,36.5H129.6z M125.8,21.6l-1.6-6
	c-0.2-0.6-0.4-1.6-0.7-2.8c-0.3-1.2-0.6-2.5-0.9-3.7c-0.3-1.3-0.5-2.4-0.7-3.2c-0.1,0.8-0.4,1.9-0.6,3.1c-0.3,1.2-0.5,2.4-0.8,3.6
	c-0.3,1.2-0.5,2.2-0.7,3l-1.6,6H125.8z"/>
<path class="st0" d="M93.3,36.5h-9.8V8.2h-8.9v-8h27.5v8h-8.8V36.5z"/>
<path class="st0" d="M62.5,36.5l-1.8-6.8H48.9l-1.8,6.8H36.3L48.2,0h13.1l12,36.5H62.5z M58.7,21.6l-1.6-6c-0.2-0.6-0.4-1.6-0.7-2.8
	c-0.3-1.2-0.6-2.5-0.9-3.7c-0.3-1.3-0.5-2.4-0.7-3.2c-0.1,0.8-0.4,1.9-0.6,3.1c-0.3,1.2-0.5,2.4-0.8,3.6c-0.3,1.2-0.5,2.2-0.7,3
	l-1.6,6H58.7z"/>
<path class="st0" d="M33.7,17.5c0,4.2-0.8,7.7-2.4,10.5c-1.6,2.8-3.8,4.9-6.7,6.3c-2.8,1.4-6.2,2.1-10.1,2.1H2.9V0.1h12.6
	c3.9,0,7.2,0.7,9.9,2c2.7,1.3,4.8,3.3,6.2,5.9C33,10.6,33.7,13.8,33.7,17.5z M23.5,17.9c0-2.2-0.3-4-0.9-5.5
	C22.1,11,21.2,9.9,20,9.2c-1.2-0.7-2.7-1.1-4.4-1.1h-2.9v20.4h2.2c3,0,5.2-0.9,6.6-2.6C22.8,24.1,23.5,21.5,23.5,17.9z"/>
<path class="st0" d="M243.9,61.8H243V50.5h-3.9v-0.8h8.7v0.8h-3.9V61.8z"/>
<path class="st0" d="M237.3,61.8h-0.9l-7.2-10.7h0c0,0.3,0,0.6,0,0.9c0,0.3,0,0.6,0,0.9c0,0.3,0,0.7,0,1v7.9h-0.8V49.7h0.9l7.1,10.7
	h0c0-0.2,0-0.5,0-0.8c0-0.3,0-0.6,0-1c0-0.3,0-0.7,0-1v-7.9h0.8V61.8z"/>
<path class="st0" d="M225.7,61.8h-6.6V49.7h6.6v0.8H220v4.6h5.4v0.8H220v5.2h5.8V61.8z"/>
<path class="st0" d="M209.7,61.8l-4.4-11.2h0c0,0.2,0,0.4,0,0.6c0,0.2,0,0.5,0,0.7c0,0.2,0,0.5,0,0.8v9.1h-0.8V49.7h1.3l4.3,10.8
	h0.1l4.3-10.8h1.3v12.1h-0.8v-9.2c0-0.2,0-0.4,0-0.7c0-0.2,0-0.5,0-0.7c0-0.2,0-0.4,0-0.7h-0.1l-4.5,11.2H209.7z"/>
<path class="st0" d="M197.3,49.7c1,0,1.8,0.1,2.4,0.3c0.6,0.2,1.1,0.6,1.5,1c0.3,0.5,0.5,1.1,0.5,1.9c0,0.6-0.1,1.1-0.3,1.6
	c-0.2,0.4-0.5,0.8-0.9,1.1c-0.4,0.3-0.8,0.5-1.4,0.6l3.3,5.5h-1l-3.1-5.3h-3v5.3h-0.9V49.7H197.3z M197.2,50.5h-2v5.3h2.4
	c1,0,1.8-0.2,2.3-0.7c0.6-0.5,0.8-1.2,0.8-2c0-1-0.3-1.7-0.9-2C199.3,50.7,198.4,50.5,197.2,50.5z"/>
<path class="st0" d="M191.6,61.8H185V49.7h6.6v0.8h-5.8v4.6h5.4v0.8h-5.4v5.2h5.8V61.8z"/>
<path class="st0" d="M182.9,49.7l-3.3,12.1h-0.8l-2.6-9.1c-0.1-0.2-0.1-0.4-0.2-0.5c0-0.2-0.1-0.3-0.1-0.5c0-0.2-0.1-0.3-0.1-0.4
	c0-0.1-0.1-0.3-0.1-0.4c0,0.1,0,0.2-0.1,0.4c0,0.1-0.1,0.3-0.1,0.4c0,0.1-0.1,0.3-0.1,0.4s-0.1,0.3-0.1,0.5l-2.6,9.4h-0.8l-3.3-12.1
	h0.9l2.3,8.5c0.1,0.2,0.1,0.4,0.2,0.6c0.1,0.2,0.1,0.4,0.1,0.6c0,0.2,0.1,0.4,0.1,0.6c0,0.2,0.1,0.4,0.1,0.5c0-0.2,0.1-0.4,0.1-0.6
	c0-0.2,0.1-0.4,0.1-0.6c0.1-0.2,0.1-0.4,0.1-0.6c0.1-0.2,0.1-0.4,0.2-0.7l2.4-8.5h0.9l2.5,8.5c0.1,0.2,0.1,0.5,0.2,0.7
	c0.1,0.2,0.1,0.4,0.1,0.6c0,0.2,0.1,0.4,0.1,0.6c0,0.2,0.1,0.4,0.1,0.5c0-0.2,0.1-0.5,0.1-0.7c0-0.2,0.1-0.5,0.2-0.8
	c0.1-0.3,0.1-0.6,0.2-0.9l2.3-8.6H182.9z"/>
<path class="st0" d="M167.1,55.8c0,0.9-0.1,1.8-0.3,2.5c-0.2,0.8-0.6,1.4-1,2s-1,1-1.7,1.3c-0.7,0.3-1.5,0.5-2.4,0.5
	c-0.9,0-1.7-0.2-2.4-0.5s-1.2-0.7-1.7-1.3c-0.4-0.6-0.8-1.2-1-2c-0.2-0.8-0.3-1.6-0.3-2.5c0-1.2,0.2-2.3,0.6-3.2
	c0.4-0.9,1-1.7,1.8-2.2c0.8-0.5,1.8-0.8,3-0.8c1.1,0,2.1,0.3,2.9,0.8c0.8,0.5,1.4,1.2,1.8,2.1C166.9,53.4,167.1,54.5,167.1,55.8z
	 M157.1,55.8c0,1.1,0.2,2,0.5,2.9c0.3,0.8,0.8,1.5,1.5,1.9c0.7,0.5,1.5,0.7,2.6,0.7c1,0,1.9-0.2,2.6-0.7c0.7-0.5,1.2-1.1,1.5-1.9
	c0.3-0.8,0.5-1.8,0.5-2.9c0-1.7-0.4-3.1-1.1-4c-0.8-1-1.9-1.4-3.3-1.4c-1,0-1.9,0.2-2.6,0.7c-0.7,0.5-1.2,1.1-1.5,1.9
	C157.3,53.7,157.1,54.7,157.1,55.8z"/>
<path class="st0" d="M149.9,49.7c1.4,0,2.5,0.3,3.2,0.8c0.7,0.6,1.1,1.4,1.1,2.6c0,0.6-0.1,1.1-0.3,1.6c-0.2,0.5-0.5,0.8-0.9,1.2
	c-0.4,0.3-0.9,0.6-1.4,0.7c-0.6,0.2-1.2,0.2-2,0.2h-1.9v5h-0.9V49.7H149.9z M149.8,50.5h-2v5.6h1.8c0.8,0,1.5-0.1,2-0.3
	c0.6-0.2,1-0.5,1.3-0.9c0.3-0.4,0.5-1,0.5-1.7c0-0.9-0.3-1.6-0.9-2C151.9,50.7,151,50.5,149.8,50.5z"/>
<path class="st0" d="M137.6,61.8l-4.4-11.2h0c0,0.2,0,0.4,0,0.6c0,0.2,0,0.5,0,0.7c0,0.2,0,0.5,0,0.8v9.1h-0.8V49.7h1.3l4.3,10.8h0
	l4.3-10.8h1.3v12.1h-0.8v-9.2c0-0.2,0-0.4,0-0.7c0-0.2,0-0.5,0-0.7c0-0.2,0-0.4,0-0.7h0l-4.5,11.2H137.6z"/>
<path class="st0" d="M129.5,61.8h-6.6V49.7h6.6v0.8h-5.8v4.6h5.4v0.8h-5.4v5.2h5.8V61.8z"/>
<path class="st0" d="M111.4,49.7c1,0,1.8,0.1,2.4,0.3c0.6,0.2,1.1,0.6,1.5,1c0.3,0.5,0.5,1.1,0.5,1.9c0,0.6-0.1,1.1-0.3,1.6
	c-0.2,0.4-0.5,0.8-0.9,1.1c-0.4,0.3-0.8,0.5-1.4,0.6l3.3,5.5h-1l-3.1-5.3h-3v5.3h-0.9V49.7H111.4z M111.3,50.5h-2v5.3h2.4
	c1,0,1.8-0.2,2.3-0.7c0.6-0.5,0.8-1.2,0.8-2c0-1-0.3-1.7-0.9-2C113.4,50.7,112.5,50.5,111.3,50.5z"/>
<path class="st0" d="M105.7,61.8h-6.6V49.7h6.6v0.8h-5.8v4.6h5.4v0.8h-5.4v5.2h5.8V61.8z"/>
<path class="st0" d="M96.5,58.7c0,0.7-0.2,1.3-0.5,1.8c-0.4,0.5-0.9,0.9-1.5,1.1c-0.6,0.2-1.3,0.4-2.1,0.4c-0.5,0-0.9,0-1.3-0.1
	c-0.4,0-0.8-0.1-1.1-0.2c-0.3-0.1-0.6-0.2-0.9-0.3v-0.9c0.4,0.2,0.9,0.3,1.5,0.4c0.6,0.1,1.2,0.2,1.9,0.2c0.6,0,1.2-0.1,1.7-0.3
	c0.5-0.2,0.9-0.5,1.2-0.8c0.3-0.4,0.4-0.8,0.4-1.4c0-0.5-0.1-0.9-0.4-1.2c-0.2-0.3-0.6-0.6-1.1-0.8c-0.5-0.2-1.1-0.5-1.8-0.7
	c-0.5-0.2-0.9-0.4-1.4-0.5c-0.4-0.2-0.7-0.4-1-0.7c-0.3-0.3-0.5-0.6-0.7-0.9c-0.1-0.4-0.2-0.8-0.2-1.3c0-0.7,0.2-1.2,0.5-1.7
	c0.3-0.5,0.8-0.8,1.4-1c0.6-0.2,1.2-0.4,2-0.4c0.6,0,1.1,0.1,1.6,0.2c0.5,0.1,1,0.3,1.5,0.5l-0.3,0.7c-0.5-0.2-1-0.4-1.5-0.5
	c-0.5-0.1-1-0.1-1.4-0.1c-0.6,0-1.1,0.1-1.5,0.3c-0.4,0.2-0.8,0.4-1.1,0.8c-0.3,0.3-0.4,0.8-0.4,1.3c0,0.5,0.1,1,0.4,1.3
	c0.2,0.3,0.6,0.6,1,0.8c0.4,0.2,1,0.4,1.6,0.6c0.7,0.2,1.3,0.5,1.9,0.8c0.5,0.3,0.9,0.6,1.2,1C96.3,57.5,96.5,58.1,96.5,58.7z"/>
<path class="st0" d="M86.5,49.7v7.8c0,0.9-0.2,1.7-0.5,2.4c-0.4,0.7-0.9,1.2-1.6,1.5c-0.7,0.3-1.5,0.5-2.4,0.5
	c-1.4,0-2.5-0.4-3.3-1.2c-0.8-0.8-1.2-1.9-1.2-3.3v-7.8h0.8v7.8c0,1.2,0.3,2.1,0.9,2.8c0.6,0.6,1.5,0.9,2.7,0.9c0.8,0,1.4-0.1,2-0.4
	c0.5-0.3,1-0.7,1.3-1.2c0.3-0.5,0.4-1.2,0.4-2v-7.9H86.5z"/>
<path class="st0" d="M70.4,61.8h-6.6V49.7h6.6v0.8h-5.8v4.6h5.4v0.8h-5.4v5.2h5.8V61.8z"/>
<path class="st0" d="M62.1,49.7l-4.5,12.1h-0.8l-4.5-12.1h0.9l3.3,9c0.1,0.3,0.2,0.5,0.3,0.8c0.1,0.2,0.2,0.5,0.2,0.7
	c0.1,0.2,0.1,0.4,0.2,0.7c0.1-0.2,0.1-0.4,0.2-0.6c0.1-0.2,0.1-0.5,0.2-0.7c0.1-0.2,0.2-0.5,0.3-0.8l3.3-9H62.1z"/>
<path class="st0" d="M49.7,61.8V49.7h0.9v12.1H49.7z"/>
<path class="st0" d="M44,61.8h-0.9V50.5h-3.9v-0.8h8.7v0.8H44V61.8z"/>
<path class="st0" d="M38.2,61.8l-1.6-4.3h-5.1l-1.7,4.3h-0.9l4.8-12.2h0.8l4.6,12.2H38.2z M36.3,56.8l-1.7-4.5
	c0-0.1-0.1-0.3-0.2-0.4c-0.1-0.2-0.1-0.4-0.2-0.6c-0.1-0.2-0.1-0.4-0.2-0.6C34,50.8,34,51,33.9,51.2c-0.1,0.2-0.1,0.4-0.2,0.6
	c-0.1,0.2-0.1,0.3-0.2,0.5l-1.7,4.5H36.3z"/>
<path class="st0" d="M27.9,61.8h-6.6V49.7h6.6v0.8h-5.8v4.6h5.4v0.8h-5.4v5.2h5.8V61.8z"/>
<path class="st0" d="M14.1,49.7c1,0,1.8,0.1,2.4,0.3c0.6,0.2,1.1,0.6,1.5,1c0.3,0.5,0.5,1.1,0.5,1.9c0,0.6-0.1,1.1-0.3,1.6
	c-0.2,0.4-0.5,0.8-0.9,1.1c-0.4,0.3-0.8,0.5-1.4,0.6l3.3,5.5h-1L15,56.6h-3v5.3h-0.9V49.7H14.1z M14,50.5h-2v5.3h2.4
	c1,0,1.8-0.2,2.3-0.7c0.6-0.5,0.8-1.2,0.8-2c0-1-0.3-1.7-0.9-2C16.1,50.7,15.2,50.5,14,50.5z"/>
<path class="st0" d="M5.8,50.3c-0.8,0-1.5,0.1-2.1,0.4c-0.6,0.3-1.1,0.6-1.5,1.1c-0.4,0.5-0.7,1.1-1,1.7c-0.2,0.7-0.3,1.4-0.3,2.2
	c0,1.1,0.2,2.1,0.5,2.9c0.3,0.8,0.9,1.5,1.6,1.9c0.7,0.5,1.6,0.7,2.6,0.7c0.6,0,1.2,0,1.7-0.1c0.5-0.1,1-0.2,1.4-0.4v0.7
	c-0.4,0.1-0.9,0.3-1.4,0.4C6.8,62,6.2,62,5.5,62c-1.2,0-2.2-0.3-3-0.8C1.7,60.7,1,60,0.6,59C0.2,58.1,0,57,0,55.7
	c0-0.9,0.1-1.7,0.4-2.5c0.3-0.8,0.6-1.4,1.1-2c0.5-0.6,1.1-1,1.8-1.3c0.7-0.3,1.5-0.5,2.5-0.5c0.6,0,1.1,0.1,1.7,0.2
	C8,49.8,8.5,50,9,50.2L8.6,51c-0.4-0.2-0.9-0.4-1.4-0.5C6.8,50.4,6.3,50.3,5.8,50.3z"/>
</svg>
